# xmcd
#
# Track frame offsets: 
#        150
#        3419
#        20181
#        29026
#        31898
#        53689
#        79813
#        87048
#        106497
#        113336
#        134334
#        135335
#        146244
#        167875
#        177943
#        199004
#        209450
#
# Disc length: 3086 seconds
#
# Revision: 0
# Processed by: cddbd v1.5.2PL0 Copyright (c) Steve Scherf et al.
# Submitted via: ExactAudioCopy v0.95a3
#
DISCID=e70c0c11
DTITLE=Western Union - Sea A Billy Cd2
DYEAR=2002
DGENRE=Country
TTITLE0=Ansage7
TTITLE1=Ich möcht so gerne mal nach Nashville
TTITLE2=Quando Quando
TTITLE3=Ansage8
TTITLE4=Danke
TTITLE5=Me and Bobby McGee
TTITLE6=Ansage9
TTITLE7=San Antonio Rose
TTITLE8=Ansage10
TTITLE9=Freitag abendteufel 
TTITLE10=Ansage11
TTITLE11=Steel Guitar Rag
TTITLE12=Traktormann
TTITLE13=Ansage12
TTITLE14=Bi-Ba-Baby
TTITLE15=Ansage13
TTITLE16=Bärenstark
EXTD=
EXTT0=
EXTT1=
EXTT2=
EXTT3=
EXTT4=
EXTT5=
EXTT6=
EXTT7=
EXTT8=
EXTT9=
EXTT10=
EXTT11=
EXTT12=
EXTT13=
EXTT14=
EXTT15=
EXTT16=
PLAYORDER=
